<svg version="1.1" id="Layer_1" xmlns="http://www.w3.org/2000/svg" xmlns:xlink="http://www.w3.org/1999/xlink" x="0px" y="0px"
	 width="100%" viewBox="0 0 91 110" enable-background="new 0 0 91 110" xml:space="preserve">
<path fill="#000103" opacity="1.000000" stroke="none" 
	d="
M92.000000,44.000000 
	C92.000000,66.308449 92.000000,88.616890 92.000000,110.962669 
	C61.725395,110.962669 31.450733,110.962669 1.088035,110.962669 
	C1.088035,74.433075 1.088035,37.865860 1.088035,1.149325 
	C31.332825,1.149325 61.666302,1.149325 92.000000,1.149325 
	C92.000000,12.087151 92.000000,23.074917 91.666092,34.475471 
	C88.517899,31.429392 85.766739,27.916019 82.853775,24.542353 
	C81.884552,23.419844 80.440407,22.721519 79.325073,21.706535 
	C78.452866,20.912802 77.753181,19.929493 77.091492,18.915249 
	C77.390991,18.490824 77.344612,18.207401 76.990509,17.610085 
	C74.203926,10.595406 67.890091,8.459748 62.157558,5.640719 
	C58.059982,3.625694 53.927525,3.103222 49.636101,6.279738 
	C47.819241,6.538241 46.095093,7.236887 44.947140,6.701074 
	C38.635715,3.755180 33.048153,6.288354 27.309628,8.463875 
	C22.959297,10.113120 21.155821,12.718480 23.284668,17.225773 
	C23.272928,17.216127 23.274315,17.246521 23.018898,17.315128 
	C22.578901,17.671566 22.394325,17.959396 22.153410,18.165813 
	C22.097073,18.084400 22.240946,18.220446 21.982115,18.283434 
	C21.543371,18.638685 21.363457,18.930948 21.150593,19.177670 
	C21.117645,19.132130 21.221395,19.175415 20.975500,19.265224 
	C20.544836,19.641273 20.360069,19.927515 20.138443,20.155701 
	C20.101585,20.097643 20.212727,20.178658 19.964569,20.262674 
	C19.536970,20.635592 19.357531,20.924492 19.137329,21.157745 
	C19.096563,21.102100 19.213049,21.176020 18.969954,21.264187 
	C18.546787,21.636244 18.366716,21.920135 18.139114,22.136135 
	C18.091585,22.068243 18.218391,22.174988 17.948462,22.279654 
	C17.439182,22.885704 17.199833,23.387087 16.808006,24.195072 
	C2.349180,43.594852 2.209571,69.882881 16.358099,89.026047 
	C29.378500,106.642845 53.785072,111.488121 72.950485,94.713272 
	C73.426941,94.364128 73.634140,94.072784 73.854935,93.822037 
	C73.868546,93.862640 73.788063,93.833374 74.040810,93.751999 
	C74.470146,93.375694 74.646736,93.080757 74.859421,92.840492 
	C74.895531,92.895157 74.785645,92.823799 75.037842,92.743454 
	C75.465485,92.368912 75.640938,92.074730 75.841705,91.785110 
	C75.867027,91.789680 75.818153,91.771088 76.188774,91.810638 
	C82.172043,90.169609 84.775986,86.763954 85.084137,81.420433 
	C85.214813,79.154449 86.186272,76.947273 86.653488,74.688118 
	C87.486610,70.659569 88.582298,66.640717 88.913620,62.564602 
	C89.303177,57.772072 88.769547,52.905945 89.129005,48.108650 
	C89.236389,46.675438 90.996887,45.366093 92.000000,44.000000 
z"/>
<path fill="#0B203A" opacity="1.000000" stroke="none" 
	d="
M23.296406,17.235420 
	C21.155821,12.718480 22.959297,10.113120 27.309628,8.463875 
	C33.048153,6.288354 38.635715,3.755180 44.947140,6.701074 
	C46.095093,7.236887 47.819241,6.538241 49.871025,6.551602 
	C59.124367,9.336854 68.379486,10.692638 75.098831,18.210423 
	C75.871384,18.630995 76.431953,18.830486 76.994858,19.016338 
	C76.997200,19.002703 76.976845,19.030416 76.976845,19.030418 
	C77.753181,19.929493 78.452866,20.912802 79.325073,21.706535 
	C80.440407,22.721519 81.884552,23.419844 82.853775,24.542353 
	C85.766739,27.916019 88.517899,31.429392 91.666092,34.944130 
	C92.000000,37.700012 92.000000,40.400028 92.000000,43.550018 
	C90.996887,45.366093 89.236389,46.675438 89.129005,48.108650 
	C88.769547,52.905945 89.303177,57.772072 88.913620,62.564602 
	C88.582298,66.640717 87.486610,70.659569 86.653488,74.688118 
	C86.186272,76.947273 85.214813,79.154449 85.084137,81.420433 
	C84.775986,86.763954 82.172043,90.169609 76.265381,91.480614 
	C90.306923,71.923157 92.203255,51.480431 80.942886,30.433466 
	C73.411278,16.355995 61.294197,8.715946 44.854465,9.071174 
	C36.720585,9.246929 29.994362,13.223864 23.296406,17.235420 
z"/>
<path fill="#62A3F4" opacity="1.000000" stroke="none" 
	d="
M23.284668,17.225773 
	C29.994362,13.223864 36.720585,9.246929 44.854465,9.071174 
	C61.294197,8.715946 73.411278,16.355995 80.942886,30.433466 
	C92.203255,51.480431 90.306923,71.923157 75.894760,91.441071 
	C75.818153,91.771088 75.867027,91.789680 75.576828,91.847870 
	C75.119629,92.211975 74.952637,92.517883 74.785645,92.823799 
	C74.785645,92.823799 74.895531,92.895157 74.594627,92.904465 
	C74.125168,93.220306 73.956619,93.526840 73.788063,93.833374 
	C73.788063,93.833374 73.868546,93.862640 73.587082,93.881630 
	C73.097481,94.190773 72.889351,94.480919 72.681213,94.771072 
	C53.785072,111.488121 29.378500,106.642845 16.358099,89.026047 
	C2.209571,69.882881 2.349180,43.594852 17.053616,24.059519 
	C17.707266,23.136572 17.962830,22.655781 18.218391,22.174988 
	C18.218391,22.174988 18.091585,22.068243 18.401024,22.075073 
	C18.877993,21.779942 19.045521,21.477982 19.213049,21.176020 
	C19.213049,21.176020 19.096563,21.102100 19.397724,21.090834 
	C19.870167,20.779264 20.041447,20.478962 20.212727,20.178658 
	C20.212727,20.178658 20.101585,20.097643 20.405952,20.094452 
	C20.880678,19.785980 21.051037,19.480698 21.221397,19.175415 
	C21.221395,19.175415 21.117645,19.132130 21.408436,19.111082 
	C21.879799,18.800171 22.060371,18.510307 22.240944,18.220446 
	C22.240946,18.220446 22.097073,18.084400 22.420822,18.115078 
	C22.921154,17.846012 23.097734,17.546267 23.274315,17.246521 
	C23.274315,17.246521 23.272928,17.216127 23.284668,17.225773 
M67.537636,57.791595 
	C67.213699,57.728336 66.889771,57.665073 66.531082,57.574665 
	C66.531082,57.574665 66.488564,57.586384 66.299034,56.922024 
	C64.987923,55.825249 63.676811,54.728474 61.336140,52.770451 
	C64.322136,52.418243 66.198174,52.413109 67.941254,51.929134 
	C69.606049,51.466908 71.132423,50.506161 72.550911,49.043350 
	C72.339531,47.379555 72.128143,45.715755 71.704430,43.380409 
	C69.126564,41.545490 55.745960,41.198364 53.493259,42.920483 
	C53.237862,43.115723 52.966190,43.363342 52.843761,43.647682 
	C51.279140,47.281471 48.027008,47.067554 44.841225,47.138348 
	C44.841225,47.138348 44.844814,47.069771 44.745472,46.468277 
	C44.128716,46.026184 43.511959,45.584087 42.330315,45.018276 
	C41.868538,44.674549 41.406761,44.330822 40.689949,43.311653 
	C35.204460,39.344261 29.129036,41.152454 23.212564,41.606571 
	C22.819565,41.636738 22.498184,42.599983 22.037815,43.028141 
	C22.037815,43.028141 22.122036,43.147446 21.365053,43.256222 
	C20.585163,44.900440 19.230576,46.511295 19.132807,48.195122 
	C18.835823,53.310066 19.069613,58.453686 19.015928,63.585297 
	C18.847431,79.691910 18.202946,79.417511 36.640640,78.776016 
	C38.398060,78.714867 40.089542,76.758614 42.067963,75.249535 
	C42.374065,75.150772 42.680168,75.052017 43.570312,74.855644 
	C43.977207,74.451103 44.384098,74.046555 44.796391,73.743935 
	C44.796391,73.743935 44.697411,73.719017 45.395020,73.754578 
	C47.334702,74.121132 49.274387,74.487686 51.129402,74.863304 
	C51.129402,74.863304 51.175007,74.791389 51.228645,75.516327 
	C53.051945,76.705544 54.742306,78.228500 56.724754,79.018188 
	C61.660839,80.984436 69.994942,77.884773 71.991844,73.219353 
	C71.991844,73.219353 72.400330,72.943626 72.693558,72.764366 
	C72.867302,72.602249 72.978645,72.404900 73.206398,71.386070 
	C72.773888,67.966049 72.341377,64.546036 71.876251,60.385975 
	C70.546410,59.629761 69.216568,58.873543 67.978615,58.010895 
	C67.978615,58.010895 67.906311,58.131268 67.537636,57.791595 
z"/>
<path fill="#0E1927" opacity="1.000000" stroke="none" 
	d="
M74.886856,17.989338 
	C68.379486,10.692638 59.124367,9.336854 50.229733,6.421874 
	C53.927525,3.103222 58.059982,3.625694 62.157558,5.640719 
	C67.890091,8.459748 74.203926,10.595406 76.961884,17.633537 
	C77.009743,17.996717 76.954117,18.045523 76.610649,18.028259 
	C75.807076,18.003777 75.346962,17.996557 74.886856,17.989338 
z"/>
<path fill="#0B203A" opacity="1.000000" stroke="none" 
	d="
M17.948462,22.279654 
	C17.962830,22.655781 17.707266,23.136572 17.206093,23.752918 
	C17.199833,23.387087 17.439182,22.885704 17.948462,22.279654 
z"/>
<path fill="#0B203A" opacity="1.000000" stroke="none" 
	d="
M72.950485,94.713272 
	C72.889351,94.480919 73.097481,94.190773 73.573471,93.841034 
	C73.634140,94.072784 73.426941,94.364128 72.950485,94.713272 
z"/>
<path fill="#0B203A" opacity="1.000000" stroke="none" 
	d="
M18.969954,21.264187 
	C19.045521,21.477982 18.877993,21.779942 18.448555,22.142965 
	C18.366716,21.920135 18.546787,21.636244 18.969954,21.264187 
z"/>
<path fill="#0B203A" opacity="1.000000" stroke="none" 
	d="
M74.040810,93.751999 
	C73.956619,93.526840 74.125168,93.220306 74.558517,92.849800 
	C74.646736,93.080757 74.470146,93.375694 74.040810,93.751999 
z"/>
<path fill="#0B203A" opacity="1.000000" stroke="none" 
	d="
M75.037842,92.743454 
	C74.952637,92.517883 75.119629,92.211975 75.551498,91.843307 
	C75.640938,92.074730 75.465485,92.368912 75.037842,92.743454 
z"/>
<path fill="#0B203A" opacity="1.000000" stroke="none" 
	d="
M23.018898,17.315128 
	C23.097734,17.546267 22.921154,17.846012 22.477160,18.196491 
	C22.394325,17.959396 22.578901,17.671566 23.018898,17.315128 
z"/>
<path fill="#0B203A" opacity="1.000000" stroke="none" 
	d="
M21.982113,18.283434 
	C22.060371,18.510307 21.879799,18.800171 21.441383,19.156622 
	C21.363457,18.930948 21.543371,18.638685 21.982113,18.283434 
z"/>
<path fill="#0E1927" opacity="1.000000" stroke="none" 
	d="
M77.038361,17.973267 
	C77.344612,18.207401 77.390991,18.490824 77.091492,18.915249 
	C76.976845,19.030416 76.997200,19.002703 76.985985,18.770195 
	C76.974770,18.537689 76.954117,18.045523 76.954117,18.045523 
	C76.954117,18.045523 77.009743,17.996717 77.038361,17.973267 
z"/>
<path fill="#0B203A" opacity="1.000000" stroke="none" 
	d="
M20.975502,19.265224 
	C21.051037,19.480698 20.880678,19.785980 20.442810,20.152508 
	C20.360069,19.927515 20.544836,19.641273 20.975502,19.265224 
z"/>
<path fill="#0B203A" opacity="1.000000" stroke="none" 
	d="
M19.964569,20.262674 
	C20.041447,20.478962 19.870167,20.779264 19.438490,21.146481 
	C19.357531,20.924492 19.536970,20.635592 19.964569,20.262674 
z"/>
<path fill="#000103" opacity="1.000000" stroke="none" 
	d="
M76.610649,18.028259 
	C76.954117,18.045523 76.974770,18.537689 76.983643,18.783833 
	C76.431953,18.830486 75.871384,18.630995 75.098831,18.210423 
	C75.346962,17.996557 75.807076,18.003777 76.610649,18.028259 
z"/>
<path fill="#02060C" opacity="1.000000" stroke="none" 
	d="
M42.986271,74.953255 
	C42.680168,75.052017 42.374065,75.150772 41.530499,75.506668 
	C34.861248,76.285652 28.729460,76.807510 22.122036,77.369843 
	C22.122036,65.204979 22.122036,54.176212 22.122036,43.147446 
	C22.122036,43.147446 22.037815,43.028141 22.545673,43.093353 
	C29.017351,43.434738 34.981167,43.710918 40.944984,43.987095 
	C41.406761,44.330822 41.868538,44.674549 42.749306,45.322227 
	C43.727135,46.107376 44.285973,46.588573 44.844814,47.069771 
	C44.844814,47.069771 44.841225,47.138348 44.919643,47.505577 
	C46.969971,52.698528 44.306721,56.002708 40.839012,58.904541 
	C47.706997,63.295631 48.462616,66.511681 44.697411,73.719017 
	C44.697411,73.719017 44.796391,73.743935 44.523262,73.784790 
	C43.828846,74.201523 43.407558,74.577385 42.986271,74.953255 
M34.867638,71.360229 
	C38.424820,70.829735 40.178799,68.213676 38.570961,65.500397 
	C37.534046,63.750565 34.058281,63.106499 31.575373,62.812405 
	C31.015512,62.746086 29.654337,66.132507 29.334936,68.042061 
	C28.681870,71.946487 31.556288,71.615601 34.867638,71.360229 
M37.845116,53.323895 
	C38.057617,48.691708 34.517155,47.790936 31.585850,48.655960 
	C27.033827,49.999252 29.929089,53.867977 29.517958,58.629623 
	C33.030613,56.666588 35.342243,55.374741 37.845116,53.323895 
z"/>
<path fill="#01050A" opacity="1.000000" stroke="none" 
	d="
M71.916756,44.051956 
	C72.128143,45.715755 72.339531,47.379555 72.241730,49.420189 
	C69.000290,49.541950 66.049805,48.986542 63.143753,49.163017 
	C61.764565,49.246773 59.781086,50.480339 59.359985,51.654976 
	C59.035233,52.560844 60.453732,54.529915 61.579823,55.405434 
	C62.951893,56.472202 64.829575,56.888653 66.488564,57.586384 
	C66.488564,57.586384 66.531082,57.574665 66.735977,57.755775 
	C67.240295,58.112968 67.562111,58.177761 67.906311,58.131268 
	C67.906311,58.131268 67.978615,58.010895 68.118660,58.322674 
	C69.475426,59.464973 70.692146,60.295494 71.908867,61.126015 
	C72.341377,64.546036 72.773888,67.966049 72.947136,71.846222 
	C72.464043,72.461044 72.368195,72.673454 72.400330,72.943626 
	C72.400330,72.943626 71.991844,73.219353 71.563019,73.597549 
	C64.627945,77.840202 57.972843,78.062187 51.175007,74.791389 
	C51.175007,74.791389 51.129402,74.863304 51.211838,74.467682 
	C51.373100,72.508827 51.451927,70.945595 51.519497,69.605583 
	C55.032310,70.109657 58.117943,70.923553 61.178848,70.839279 
	C62.773502,70.795372 64.324562,69.168083 65.895309,68.255997 
	C64.909729,66.873932 64.192612,65.100594 62.877754,64.198402 
	C60.723904,62.720531 57.602718,62.338131 55.946827,60.527012 
	C53.790852,58.168930 51.636169,54.963951 51.351036,51.946701 
	C50.959900,47.807747 54.120716,44.618683 58.227047,44.074718 
	C62.712574,43.480518 67.347145,44.011444 71.916756,44.051956 
z"/>
<path fill="#669BDE" opacity="1.000000" stroke="none" 
	d="
M71.810593,43.716183 
	C67.347145,44.011444 62.712574,43.480518 58.227047,44.074718 
	C54.120716,44.618683 50.959900,47.807747 51.351036,51.946701 
	C51.636169,54.963951 53.790852,58.168930 55.946827,60.527012 
	C57.602718,62.338131 60.723904,62.720531 62.877754,64.198402 
	C64.192612,65.100594 64.909729,66.873932 65.895309,68.255997 
	C64.324562,69.168083 62.773502,70.795372 61.178848,70.839279 
	C58.117943,70.923553 55.032310,70.109657 51.519497,69.605583 
	C51.451927,70.945595 51.373100,72.508827 51.254169,74.463150 
	C49.274387,74.487686 47.334702,74.121132 45.046215,73.736801 
	C48.462616,66.511681 47.706997,63.295631 40.839012,58.904541 
	C44.306721,56.002708 46.969971,52.698528 44.952049,47.516914 
	C48.027008,47.067554 51.279140,47.281471 52.843761,43.647682 
	C52.966190,43.363342 53.237862,43.115723 53.493259,42.920483 
	C55.745960,41.198364 69.126564,41.545490 71.810593,43.716183 
z"/>
<path fill="#669BDE" opacity="1.000000" stroke="none" 
	d="
M21.743546,43.201836 
	C22.122036,54.176212 22.122036,65.204979 22.122036,77.369843 
	C28.729460,76.807510 34.861248,76.285652 41.402336,75.722984 
	C40.089542,76.758614 38.398060,78.714867 36.640640,78.776016 
	C18.202946,79.417511 18.847431,79.691910 19.015928,63.585297 
	C19.069613,58.453686 18.835823,53.310066 19.132807,48.195122 
	C19.230576,46.511295 20.585163,44.900440 21.743546,43.201836 
z"/>
<path fill="#669BDE" opacity="1.000000" stroke="none" 
	d="
M66.393799,57.254204 
	C64.829575,56.888653 62.951893,56.472202 61.579823,55.405434 
	C60.453732,54.529915 59.035233,52.560844 59.359985,51.654976 
	C59.781086,50.480339 61.764565,49.246773 63.143753,49.163017 
	C66.049805,48.986542 69.000290,49.541950 72.326096,49.780792 
	C71.132423,50.506161 69.606049,51.466908 67.941254,51.929134 
	C66.198174,52.413109 64.322136,52.418243 61.336140,52.770451 
	C63.676811,54.728474 64.987923,55.825249 66.393799,57.254204 
z"/>
<path fill="#669BDE" opacity="1.000000" stroke="none" 
	d="
M51.201828,75.153854 
	C57.972843,78.062187 64.627945,77.840202 71.468552,73.825142 
	C69.994942,77.884773 61.660839,80.984436 56.724754,79.018188 
	C54.742306,78.228500 53.051945,76.705544 51.201828,75.153854 
z"/>
<path fill="#669BDE" opacity="1.000000" stroke="none" 
	d="
M40.817467,43.649376 
	C34.981167,43.710918 29.017351,43.434738 22.598511,43.143898 
	C22.498184,42.599983 22.819565,41.636738 23.212564,41.606571 
	C29.129036,41.152454 35.204460,39.344261 40.817467,43.649376 
z"/>
<path fill="#669BDE" opacity="1.000000" stroke="none" 
	d="
M71.892563,60.755997 
	C70.692146,60.295494 69.475426,59.464973 68.072716,58.375893 
	C69.216568,58.873543 70.546410,59.629761 71.892563,60.755997 
z"/>
<path fill="#669BDE" opacity="1.000000" stroke="none" 
	d="
M44.795143,46.769024 
	C44.285973,46.588573 43.727135,46.107376 43.031746,45.384087 
	C43.511959,45.584087 44.128716,46.026184 44.795143,46.769024 
z"/>
<path fill="#669BDE" opacity="1.000000" stroke="none" 
	d="
M43.278290,74.904449 
	C43.407558,74.577385 43.828846,74.201523 44.520561,73.733833 
	C44.384098,74.046555 43.977207,74.451103 43.278290,74.904449 
z"/>
<path fill="#669BDE" opacity="1.000000" stroke="none" 
	d="
M72.546944,72.853996 
	C72.368195,72.673454 72.464043,72.461044 72.857727,72.239349 
	C72.978645,72.404900 72.867302,72.602249 72.546944,72.853996 
z"/>
<path fill="#669BDE" opacity="1.000000" stroke="none" 
	d="
M67.721970,57.961433 
	C67.562111,58.177761 67.240295,58.112968 66.753349,57.769348 
	C66.889771,57.665073 67.213699,57.728336 67.721970,57.961433 
z"/>
<path fill="#6598D6" opacity="1.000000" stroke="none" 
	d="
M34.477676,71.415436 
	C31.556288,71.615601 28.681870,71.946487 29.334936,68.042061 
	C29.654337,66.132507 31.015512,62.746086 31.575373,62.812405 
	C34.058281,63.106499 37.534046,63.750565 38.570961,65.500397 
	C40.178799,68.213676 38.424820,70.829735 34.477676,71.415436 
z"/>
<path fill="#6495D1" opacity="1.000000" stroke="none" 
	d="
M37.749496,53.703392 
	C35.342243,55.374741 33.030613,56.666588 29.517958,58.629623 
	C29.929089,53.867977 27.033827,49.999252 31.585850,48.655960 
	C34.517155,47.790936 38.057617,48.691708 37.749496,53.703392 
z"/>
</svg>